<svg xmlns="http://www.w3.org/2000/svg" version="1.1" xmlns:xlink="http://www.w3.org/1999/xlink" xmlns:svgjs="http://svgjs.dev/svgjs" width="128" height="128" viewBox="0 0 128 128"><g transform="matrix(0.8046875,0,0,0.8046875,12.760752631578946,16.328247271339542)"><svg viewBox="0 0 95 89" data-background-color="#000000" preserveAspectRatio="xMidYMid meet" height="119" width="128" xmlns="http://www.w3.org/2000/svg" xmlns:xlink="http://www.w3.org/1999/xlink"><g id="tight-bounds" transform="matrix(1,0,0,1,-0.24049999999999727,-0.1925343000000055)"><svg viewBox="0 0 95.481 89.3850686" height="89.3850686" width="95.481"><g><svg viewBox="0 0 95.481 89.3850686" height="89.3850686" width="95.481"><g><svg viewBox="0 0 95.481 89.3850686" height="89.3850686" width="95.481"><g id="textblocktransform"><svg viewBox="0 0 95.481 89.3850686" height="89.3850686" width="95.481" id="textblock"><g><svg viewBox="0 0 95.481 89.3850686" height="89.3850686" width="95.481"><g><svg viewBox="0 0 95.481 89.3850686" height="89.3850686" width="95.481"><g><svg xmlns="http://www.w3.org/2000/svg" xmlns:xlink="http://www.w3.org/1999/xlink" version="1.1" x="0" y="0" viewBox="5 7.872999999999999 90 84.254" enable-background="new 0 0 100 100" xml:space="preserve" height="89.3850686" width="95.481" class="icon-icon-0" data-fill-palette-color="accent" id="icon-0"><g fill="#dcdcdc" data-fill-palette-color="accent"><path fill="#000000" d="M60.532 7.873c-8.872 0-16.168 6.702-17.122 15.319h-4.058c-0.954-8.617-8.247-15.319-17.118-15.319C12.712 7.873 5 15.588 5 25.106c0 9.518 7.712 17.234 17.234 17.234 8.198 0 15.046-5.733 16.792-13.404h4.709c1.747 7.671 8.595 13.404 16.797 13.404 9.518 0 17.233-7.716 17.233-17.234C77.766 15.588 70.05 7.873 60.532 7.873" data-fill-palette-color="accent"></path><path fill="#000000" d="M91.17 40.425c-2.116 0-3.829 1.717-3.829 3.83v2.461l-10.103 2.887c-0.822 0.234-1.388 0.987-1.388 1.84v8.6c0 0.856 0.565 1.606 1.388 1.842l10.103 2.887v2.461c0 2.113 1.713 3.83 3.829 3.83 2.113 0 3.83-1.717 3.83-3.83V44.255C95 42.142 93.283 40.425 91.17 40.425" data-fill-palette-color="accent"></path><path fill="#000000" d="M41.383 37.837c-4.144 6.279-11.22 10.248-19.148 10.248-4.189 0-8.104-1.145-11.489-3.108v18.427c0 2.115 1.713 3.83 3.829 3.83h15.548L10.745 86.697v5.43h5.396l24.793-24.894h0.976l24.789 24.894h5.322v-5.513L52.719 67.234h15.473c2.113 0 3.83-1.715 3.83-3.83V44.977c-3.389 1.963-7.305 3.108-11.489 3.108C52.6 48.085 45.523 44.117 41.383 37.837" data-fill-palette-color="accent"></path></g></svg></g></svg></g></svg></g></svg></g></svg></g><g></g></svg></g><defs></defs></svg><rect width="95.481" height="89.3850686" fill="none" stroke="none" visibility="hidden"></rect></g></svg></g></svg>